# xmcd
#
# Track frame offsets: 
#        150
#        20215
#        45962
#        71837
#        94234
#        113256
#        133259
#        153312
#        172393
#        188709
#        203789
#        221686
#
# Disc length: 3258 seconds
#
# Revision: 0
# Processed by: cddbd v1.5.2PL0 Copyright (c) Steve Scherf et al.
# Submitted via: ExactAudioCopyFreeDBPlugin 1.0
#
DISCID=ae0cb80c
DTITLE=Tinariwen - Aman Iman
DYEAR=2007
DGENRE=World: Tishoumaren
TTITLE0=Cler Achel
TTITLE1=Mano Dayak
TTITLE2=Matadjem Yinmixan
TTITLE3=Ahimana
TTITLE4=Soixante Trois
TTITLE5=Toumast
TTITLE6=Imidiwan Winakalin
TTITLE7=Awa Didjen
TTITLE8=Ikyadarh Dim
TTITLE9=Tamatant Tilay
TTITLE10=Assouf
TTITLE11=Izarharh Tenere
EXTD=
EXTT0=
EXTT1=
EXTT2=
EXTT3=
EXTT4=
EXTT5=
EXTT6=
EXTT7=
EXTT8=
EXTT9=
EXTT10=
EXTT11=
PLAYORDER=
